G04 ---------------------------- Layer name :BOTTOM SILK LAYER*
G04 easyEDA 0.1*
G04 Scale: 100 percent, Rotated: No, Reflected: No *
G04 Dimensions in inches *
G04 leading zeros omitted , absolute positions ,2 integer and 4 * 
%FSLAX24Y24*%
%MOIN*%
G90*
G70D02*

%ADD10C,0.010000*%
%ADD11C,0.008000*%
%ADD12C,0.010000*%
%ADD13C,0.008000*%
%ADD14C,0.007000*%
%ADD15C,0.006000*%

%LPD*%
G54D10*
G01X9500Y10200D02*
G01X9500Y-100D01*
G01X7500Y-100D01*
G01X7500Y-500D01*
G01X4600Y-500D01*
G01X4600Y-100D01*
G01X2800Y-100D01*
G01X2800Y10200D01*
G01X9500Y10200D01*
G54D11*
G01X14300Y-850D02*
G01X14300Y12150D01*
G01X21300Y12150D01*
G01X21300Y-850D01*
G01X14300Y-850D01*
G54D10*
G01X3100Y11950D02*
G01X3100Y13550D01*
G01X6600Y11950D02*
G01X6600Y13550D01*
G01X3100Y13550D02*
G01X6600Y13550D01*
G01X3100Y11950D02*
G01X6600Y11950D01*
G01X11659Y1650D02*
G01X11659Y695D01*
G01X11659Y1650D02*
G01X11250Y1650D01*
G01X11113Y1604D01*
G01X11068Y1559D01*
G01X11022Y1468D01*
G01X11022Y1377D01*
G01X11068Y1286D01*
G01X11113Y1240D01*
G01X11250Y1195D01*
G01X11659Y1195D01*
G01X11340Y1195D02*
G01X11022Y695D01*
G01X10722Y1059D02*
G01X10177Y1059D01*
G01X10177Y1150D01*
G01X10222Y1240D01*
G01X10268Y1286D01*
G01X10359Y1331D01*
G01X10495Y1331D01*
G01X10586Y1286D01*
G01X10677Y1195D01*
G01X10722Y1059D01*
G01X10722Y968D01*
G01X10677Y831D01*
G01X10586Y740D01*
G01X10495Y695D01*
G01X10359Y695D01*
G01X10268Y740D01*
G01X10177Y831D01*
G01X9877Y1331D02*
G01X9604Y695D01*
G01X9331Y1331D02*
G01X9604Y695D01*
G01X8331Y1468D02*
G01X8240Y1513D01*
G01X8104Y1650D01*
G01X8104Y695D01*
G01X7104Y1104D02*
G01X6286Y1104D01*
G01X5240Y1422D02*
G01X5240Y1468D01*
G01X5195Y1559D01*
G01X5150Y1604D01*
G01X5059Y1650D01*
G01X4877Y1650D01*
G01X4786Y1604D01*
G01X4740Y1559D01*
G01X4695Y1468D01*
G01X4695Y1377D01*
G01X4740Y1286D01*
G01X4831Y1150D01*
G01X5286Y695D01*
G01X4650Y695D01*
G01X4077Y1650D02*
G01X4213Y1604D01*
G01X4304Y1468D01*
G01X4350Y1240D01*
G01X4350Y1104D01*
G01X4304Y877D01*
G01X4213Y740D01*
G01X4077Y695D01*
G01X3986Y695D01*
G01X3850Y740D01*
G01X3759Y877D01*
G01X3713Y1104D01*
G01X3713Y1240D01*
G01X3759Y1468D01*
G01X3850Y1604D01*
G01X3986Y1650D01*
G01X4077Y1650D01*
G01X3413Y1468D02*
G01X3322Y1513D01*
G01X3186Y1650D01*
G01X3186Y695D01*
G01X2659Y1650D02*
G01X2795Y1604D01*
G01X2840Y1513D01*
G01X2840Y1422D01*
G01X2795Y1331D01*
G01X2704Y1286D01*
G01X2522Y1240D01*
G01X2386Y1195D01*
G01X2295Y1104D01*
G01X2250Y1013D01*
G01X2250Y877D01*
G01X2295Y786D01*
G01X2340Y740D01*
G01X2477Y695D01*
G01X2659Y695D01*
G01X2795Y740D01*
G01X2840Y786D01*
G01X2886Y877D01*
G01X2886Y1013D01*
G01X2840Y1104D01*
G01X2750Y1195D01*
G01X2613Y1240D01*
G01X2431Y1286D01*
G01X2340Y1331D01*
G01X2295Y1422D01*
G01X2295Y1513D01*
G01X2340Y1604D01*
G01X2477Y1650D01*
G01X2659Y1650D01*
G54D13*
G01X3778Y11850D02*
G01X3778Y11196D01*
G01X4105Y11523D02*
G01X3450Y11523D01*
G01X6255Y11650D02*
G01X5600Y11650D01*
G54D14*
G01X17874Y850D02*
G01X17874Y421D01*
G01X17874Y850D02*
G01X17690Y850D01*
G01X17629Y830D01*
G01X17608Y809D01*
G01X17588Y769D01*
G01X17588Y707D01*
G01X17608Y665D01*
G01X17629Y646D01*
G01X17690Y625D01*
G01X17874Y625D01*
G01X17453Y769D02*
G01X17412Y788D01*
G01X17350Y850D01*
G01X17350Y421D01*
G54D15*
G01X15632Y11623D02*
G01X15673Y11636D01*
G01X15700Y11663D01*
G01X15713Y11705D01*
G01X15713Y11717D01*
G01X15700Y11759D01*
G01X15673Y11786D01*
G01X15632Y11800D01*
G01X15617Y11800D01*
G01X15576Y11786D01*
G01X15550Y11759D01*
G01X15536Y11717D01*
G01X15536Y11705D01*
G01X15550Y11663D01*
G01X15576Y11636D01*
G01X15632Y11623D01*
G01X15700Y11623D01*
G01X15767Y11636D01*
G01X15809Y11663D01*
G01X15823Y11705D01*
G01X15823Y11732D01*
G01X15809Y11773D01*
G01X15782Y11786D01*
G01X15536Y10732D02*
G01X15550Y10773D01*
G01X15576Y10786D01*
G01X15605Y10786D01*
G01X15632Y10773D01*
G01X15644Y10744D01*
G01X15659Y10690D01*
G01X15673Y10650D01*
G01X15700Y10623D01*
G01X15726Y10609D01*
G01X15767Y10609D01*
G01X15794Y10623D01*
G01X15809Y10636D01*
G01X15823Y10676D01*
G01X15823Y10732D01*
G01X15809Y10773D01*
G01X15794Y10786D01*
G01X15767Y10800D01*
G01X15726Y10800D01*
G01X15700Y10786D01*
G01X15673Y10759D01*
G01X15659Y10717D01*
G01X15644Y10663D01*
G01X15632Y10636D01*
G01X15605Y10623D01*
G01X15576Y10623D01*
G01X15550Y10636D01*
G01X15536Y10676D01*
G01X15536Y10732D01*
G01X15536Y9609D02*
G01X15823Y9744D01*
G01X15536Y9800D02*
G01X15536Y9609D01*
G01X15576Y8636D02*
G01X15550Y8650D01*
G01X15536Y8690D01*
G01X15536Y8717D01*
G01X15550Y8759D01*
G01X15590Y8786D01*
G01X15659Y8800D01*
G01X15726Y8800D01*
G01X15782Y8786D01*
G01X15809Y8759D01*
G01X15823Y8717D01*
G01X15823Y8705D01*
G01X15809Y8663D01*
G01X15782Y8636D01*
G01X15740Y8623D01*
G01X15726Y8623D01*
G01X15686Y8636D01*
G01X15659Y8663D01*
G01X15644Y8705D01*
G01X15644Y8717D01*
G01X15659Y8759D01*
G01X15686Y8786D01*
G01X15726Y8800D01*
G01X15536Y7636D02*
G01X15536Y7773D01*
G01X15659Y7786D01*
G01X15644Y7773D01*
G01X15632Y7732D01*
G01X15632Y7690D01*
G01X15644Y7650D01*
G01X15673Y7623D01*
G01X15713Y7609D01*
G01X15740Y7609D01*
G01X15782Y7623D01*
G01X15809Y7650D01*
G01X15823Y7690D01*
G01X15823Y7732D01*
G01X15809Y7773D01*
G01X15794Y7786D01*
G01X15767Y7800D01*
G01X15536Y6663D02*
G01X15726Y6800D01*
G01X15726Y6594D01*
G01X15536Y6663D02*
G01X15823Y6663D01*
G01X15536Y5773D02*
G01X15536Y5623D01*
G01X15644Y5705D01*
G01X15644Y5663D01*
G01X15659Y5636D01*
G01X15673Y5623D01*
G01X15713Y5609D01*
G01X15740Y5609D01*
G01X15782Y5623D01*
G01X15809Y5650D01*
G01X15823Y5690D01*
G01X15823Y5732D01*
G01X15809Y5773D01*
G01X15794Y5786D01*
G01X15767Y5800D01*
G01X15480Y4769D02*
G01X15469Y4769D01*
G01X15450Y4759D01*
G01X15440Y4750D01*
G01X15430Y4730D01*
G01X15430Y4690D01*
G01X15440Y4669D01*
G01X15450Y4659D01*
G01X15469Y4650D01*
G01X15490Y4650D01*
G01X15509Y4659D01*
G01X15540Y4680D01*
G01X15640Y4780D01*
G01X15640Y4640D01*
G01X15580Y3900D02*
G01X15559Y3909D01*
G01X15540Y3930D01*
G01X15530Y3950D01*
G01X15530Y3990D01*
G01X15540Y4009D01*
G01X15559Y4030D01*
G01X15580Y4040D01*
G01X15609Y4050D01*
G01X15659Y4050D01*
G01X15690Y4040D01*
G01X15709Y4030D01*
G01X15730Y4009D01*
G01X15740Y3990D01*
G01X15740Y3950D01*
G01X15730Y3930D01*
G01X15709Y3909D01*
G01X15690Y3900D01*
G01X15659Y3900D01*
G01X15659Y3950D02*
G01X15659Y3900D01*
G01X15530Y3834D02*
G01X15740Y3834D01*
G01X15530Y3834D02*
G01X15740Y3694D01*
G01X15530Y3694D02*
G01X15740Y3694D01*
G01X15530Y3628D02*
G01X15740Y3628D01*
G01X15530Y3628D02*
G01X15530Y3557D01*
G01X15540Y3528D01*
G01X15559Y3507D01*
G01X15580Y3498D01*
G01X15609Y3488D01*
G01X15659Y3488D01*
G01X15690Y3498D01*
G01X15709Y3507D01*
G01X15730Y3528D01*
G01X15740Y3557D01*
G01X15740Y3628D01*
G01X15580Y2900D02*
G01X15559Y2909D01*
G01X15540Y2930D01*
G01X15530Y2950D01*
G01X15530Y2990D01*
G01X15540Y3009D01*
G01X15559Y3030D01*
G01X15580Y3040D01*
G01X15609Y3050D01*
G01X15659Y3050D01*
G01X15690Y3040D01*
G01X15709Y3030D01*
G01X15730Y3009D01*
G01X15740Y2990D01*
G01X15740Y2950D01*
G01X15730Y2930D01*
G01X15709Y2909D01*
G01X15690Y2900D01*
G01X15659Y2900D01*
G01X15659Y2950D02*
G01X15659Y2900D01*
G01X15530Y2834D02*
G01X15740Y2834D01*
G01X15530Y2834D02*
G01X15740Y2694D01*
G01X15530Y2694D02*
G01X15740Y2694D01*
G01X15530Y2628D02*
G01X15740Y2628D01*
G01X15530Y2628D02*
G01X15530Y2557D01*
G01X15540Y2528D01*
G01X15559Y2507D01*
G01X15580Y2498D01*
G01X15609Y2488D01*
G01X15659Y2488D01*
G01X15690Y2498D01*
G01X15709Y2507D01*
G01X15730Y2528D01*
G01X15740Y2557D01*
G01X15740Y2628D01*
G01X15530Y2050D02*
G01X15740Y2050D01*
G01X15530Y2050D02*
G01X15530Y1959D01*
G01X15540Y1930D01*
G01X15550Y1919D01*
G01X15569Y1909D01*
G01X15590Y1909D01*
G01X15609Y1919D01*
G01X15619Y1930D01*
G01X15630Y1959D01*
G01X15630Y2050D01*
G01X15630Y1980D02*
G01X15740Y1909D01*
G01X15530Y1844D02*
G01X15740Y1703D01*
G01X15530Y1703D02*
G01X15740Y1844D01*
G01X15530Y1638D02*
G01X15740Y1638D01*
G01X15530Y980D02*
G01X15740Y980D01*
G01X15530Y1050D02*
G01X15530Y909D01*
G01X15530Y844D02*
G01X15740Y703D01*
G01X15530Y703D02*
G01X15740Y844D01*
G01X15530Y578D02*
G01X15540Y598D01*
G01X15559Y617D01*
G01X15580Y628D01*
G01X15609Y638D01*
G01X15659Y638D01*
G01X15690Y628D01*
G01X15709Y617D01*
G01X15730Y598D01*
G01X15740Y578D01*
G01X15740Y538D01*
G01X15730Y517D01*
G01X15709Y498D01*
G01X15690Y488D01*
G01X15659Y478D01*
G01X15609Y478D01*
G01X15580Y488D01*
G01X15559Y498D01*
G01X15540Y517D01*
G01X15530Y538D01*
G01X15530Y578D01*
G01X19880Y1050D02*
G01X20090Y1050D01*
G01X19880Y1050D02*
G01X19880Y959D01*
G01X19890Y930D01*
G01X19900Y919D01*
G01X19919Y909D01*
G01X19940Y909D01*
G01X19959Y919D01*
G01X19969Y930D01*
G01X19980Y959D01*
G01X19980Y1050D01*
G01X19980Y980D02*
G01X20090Y909D01*
G01X19880Y763D02*
G01X20090Y844D01*
G01X19880Y763D02*
G01X20090Y684D01*
G01X20019Y813D02*
G01X20019Y713D01*
G01X19880Y617D02*
G01X20090Y567D01*
G01X19880Y517D02*
G01X20090Y567D01*
G01X19880Y517D02*
G01X20090Y467D01*
G01X19880Y417D02*
G01X20090Y467D01*
G01X19930Y1800D02*
G01X19909Y1809D01*
G01X19890Y1830D01*
G01X19880Y1850D01*
G01X19880Y1890D01*
G01X19890Y1909D01*
G01X19909Y1930D01*
G01X19930Y1940D01*
G01X19959Y1950D01*
G01X20009Y1950D01*
G01X20040Y1940D01*
G01X20059Y1930D01*
G01X20080Y1909D01*
G01X20090Y1890D01*
G01X20090Y1850D01*
G01X20080Y1830D01*
G01X20059Y1809D01*
G01X20040Y1800D01*
G01X20009Y1800D01*
G01X20009Y1850D02*
G01X20009Y1800D01*
G01X19880Y1734D02*
G01X20090Y1734D01*
G01X19880Y1734D02*
G01X20090Y1594D01*
G01X19880Y1594D02*
G01X20090Y1594D01*
G01X19880Y1528D02*
G01X20090Y1528D01*
G01X19880Y1528D02*
G01X19880Y1457D01*
G01X19890Y1428D01*
G01X19909Y1407D01*
G01X19930Y1398D01*
G01X19959Y1388D01*
G01X20009Y1388D01*
G01X20040Y1398D01*
G01X20059Y1407D01*
G01X20080Y1428D01*
G01X20090Y1457D01*
G01X20090Y1528D01*
G01X19880Y2950D02*
G01X20090Y2950D01*
G01X19880Y2950D02*
G01X19880Y2859D01*
G01X19890Y2830D01*
G01X19900Y2819D01*
G01X19919Y2809D01*
G01X19940Y2809D01*
G01X19959Y2819D01*
G01X19969Y2830D01*
G01X19980Y2859D01*
G01X19980Y2950D01*
G01X19980Y2880D02*
G01X20090Y2809D01*
G01X19909Y2603D02*
G01X19890Y2623D01*
G01X19880Y2653D01*
G01X19880Y2694D01*
G01X19890Y2723D01*
G01X19909Y2744D01*
G01X19930Y2744D01*
G01X19950Y2734D01*
G01X19959Y2723D01*
G01X19969Y2703D01*
G01X19990Y2644D01*
G01X20000Y2623D01*
G01X20009Y2613D01*
G01X20030Y2603D01*
G01X20059Y2603D01*
G01X20080Y2623D01*
G01X20090Y2653D01*
G01X20090Y2694D01*
G01X20080Y2723D01*
G01X20059Y2744D01*
G01X19880Y2467D02*
G01X20090Y2467D01*
G01X19880Y2538D02*
G01X19880Y2398D01*
G01X19880Y3950D02*
G01X20090Y3869D01*
G01X19880Y3790D02*
G01X20090Y3869D01*
G01X19930Y3573D02*
G01X19909Y3584D01*
G01X19890Y3603D01*
G01X19880Y3623D01*
G01X19880Y3663D01*
G01X19890Y3684D01*
G01X19909Y3703D01*
G01X19930Y3713D01*
G01X19959Y3723D01*
G01X20009Y3723D01*
G01X20040Y3713D01*
G01X20059Y3703D01*
G01X20080Y3684D01*
G01X20090Y3663D01*
G01X20090Y3623D01*
G01X20080Y3603D01*
G01X20059Y3584D01*
G01X20040Y3573D01*
G01X19930Y3357D02*
G01X19909Y3367D01*
G01X19890Y3388D01*
G01X19880Y3407D01*
G01X19880Y3448D01*
G01X19890Y3467D01*
G01X19909Y3488D01*
G01X19930Y3498D01*
G01X19959Y3507D01*
G01X20009Y3507D01*
G01X20040Y3498D01*
G01X20059Y3488D01*
G01X20080Y3467D01*
G01X20090Y3448D01*
G01X20090Y3407D01*
G01X20080Y3388D01*
G01X20059Y3367D01*
G01X20040Y3357D01*
G01X19836Y4840D02*
G01X20123Y4950D01*
G01X19836Y4840D02*
G01X20123Y4732D01*
G01X20027Y4909D02*
G01X20027Y4773D01*
G01X19836Y4615D02*
G01X19836Y4465D01*
G01X19944Y4546D01*
G01X19944Y4505D01*
G01X19959Y4478D01*
G01X19973Y4465D01*
G01X20013Y4451D01*
G01X20040Y4451D01*
G01X20082Y4465D01*
G01X20109Y4492D01*
G01X20123Y4532D01*
G01X20123Y4573D01*
G01X20109Y4615D01*
G01X20094Y4628D01*
G01X20067Y4642D01*
G01X19836Y5840D02*
G01X20123Y5950D01*
G01X19836Y5840D02*
G01X20123Y5732D01*
G01X20027Y5909D02*
G01X20027Y5773D01*
G01X19905Y5628D02*
G01X19890Y5628D01*
G01X19863Y5615D01*
G01X19850Y5601D01*
G01X19836Y5573D01*
G01X19836Y5519D01*
G01X19850Y5492D01*
G01X19863Y5478D01*
G01X19890Y5465D01*
G01X19917Y5465D01*
G01X19944Y5478D01*
G01X19986Y5505D01*
G01X20123Y5642D01*
G01X20123Y5451D01*
G01X19836Y6740D02*
G01X20123Y6850D01*
G01X19836Y6740D02*
G01X20123Y6632D01*
G01X20027Y6809D02*
G01X20027Y6673D01*
G01X19890Y6542D02*
G01X19877Y6515D01*
G01X19836Y6473D01*
G01X20123Y6473D01*
G01X19836Y7740D02*
G01X20123Y7850D01*
G01X19836Y7740D02*
G01X20123Y7632D01*
G01X20027Y7809D02*
G01X20027Y7673D01*
G01X19836Y7459D02*
G01X19850Y7501D01*
G01X19890Y7528D01*
G01X19959Y7542D01*
G01X20000Y7542D01*
G01X20067Y7528D01*
G01X20109Y7501D01*
G01X20123Y7459D01*
G01X20123Y7432D01*
G01X20109Y7392D01*
G01X20067Y7365D01*
G01X20000Y7351D01*
G01X19959Y7351D01*
G01X19890Y7365D01*
G01X19850Y7392D01*
G01X19836Y7432D01*
G01X19836Y7459D01*
G01X19890Y8850D02*
G01X19877Y8823D01*
G01X19836Y8782D01*
G01X20123Y8782D01*
G01X19836Y8528D02*
G01X19836Y8665D01*
G01X19959Y8678D01*
G01X19944Y8665D01*
G01X19932Y8623D01*
G01X19932Y8582D01*
G01X19944Y8542D01*
G01X19973Y8515D01*
G01X20013Y8501D01*
G01X20040Y8501D01*
G01X20082Y8515D01*
G01X20109Y8542D01*
G01X20123Y8582D01*
G01X20123Y8623D01*
G01X20109Y8665D01*
G01X20094Y8678D01*
G01X20067Y8692D01*
G01X19890Y9850D02*
G01X19877Y9823D01*
G01X19836Y9782D01*
G01X20123Y9782D01*
G01X19836Y9555D02*
G01X20027Y9692D01*
G01X20027Y9486D01*
G01X19836Y9555D02*
G01X20123Y9555D01*
G01X19890Y10950D02*
G01X19877Y10923D01*
G01X19836Y10882D01*
G01X20123Y10882D01*
G01X19877Y10628D02*
G01X19850Y10642D01*
G01X19836Y10682D01*
G01X19836Y10709D01*
G01X19850Y10751D01*
G01X19890Y10778D01*
G01X19959Y10792D01*
G01X20027Y10792D01*
G01X20082Y10778D01*
G01X20109Y10751D01*
G01X20123Y10709D01*
G01X20123Y10696D01*
G01X20109Y10655D01*
G01X20082Y10628D01*
G01X20040Y10615D01*
G01X20027Y10615D01*
G01X19986Y10628D01*
G01X19959Y10655D01*
G01X19944Y10696D01*
G01X19944Y10709D01*
G01X19959Y10751D01*
G01X19986Y10778D01*
G01X20027Y10792D01*
G01X19890Y11850D02*
G01X19877Y11823D01*
G01X19836Y11782D01*
G01X20123Y11782D01*
G01X19836Y11609D02*
G01X19850Y11651D01*
G01X19890Y11678D01*
G01X19959Y11692D01*
G01X20000Y11692D01*
G01X20067Y11678D01*
G01X20109Y11651D01*
G01X20123Y11609D01*
G01X20123Y11582D01*
G01X20109Y11542D01*
G01X20067Y11515D01*
G01X20000Y11501D01*
G01X19959Y11501D01*
G01X19890Y11515D01*
G01X19850Y11542D01*
G01X19836Y11582D01*
G01X19836Y11609D01*
G54D14*
G01X5208Y12850D02*
G01X5208Y12544D01*
G01X5188Y12482D01*
G01X5147Y12440D01*
G01X5085Y12421D01*
G01X5044Y12421D01*
G01X4983Y12440D01*
G01X4942Y12482D01*
G01X4922Y12544D01*
G01X4922Y12850D01*
G01X4766Y12748D02*
G01X4766Y12769D01*
G01X4746Y12809D01*
G01X4725Y12830D01*
G01X4684Y12850D01*
G01X4603Y12850D01*
G01X4562Y12830D01*
G01X4541Y12809D01*
G01X4521Y12769D01*
G01X4521Y12728D01*
G01X4541Y12686D01*
G01X4582Y12625D01*
G01X4787Y12421D01*
G01X4500Y12421D01*
G54D12*
G75*
G01X15200Y8650D02*
G03X15200Y8650I-400J0D01*
G01*
G75*
G01X15200Y7650D02*
G03X15200Y7650I-400J0D01*
G01*
G75*
G01X15200Y5650D02*
G03X15200Y5650I-400J0D01*
G01*
G75*
G01X15200Y11650D02*
G03X15200Y11650I-400J0D01*
G01*
G75*
G01X21200Y11650D02*
G03X21200Y11650I-400J0D01*
G01*

M00*
M02*