G04 ---------------------------- Layer name :TOP SILK LAYER*
G04 easyEDA 0.1*
G04 Scale: 100 percent, Rotated: No, Reflected: No *
G04 Dimensions in inches *
G04 leading zeros omitted , absolute positions ,2 integer and 4 * 
%FSLAX24Y24*%
%MOIN*%
G90*
G70D02*

%ADD10C,0.010000*%
%ADD11C,0.005000*%
%ADD12C,0.020000*%
%ADD13C,0.008000*%
%ADD14C,0.007000*%
%ADD15C,0.006000*%

%LPD*%
G54D10*
G01X12500Y13850D02*
G01X23300Y13850D01*
G01X12500Y13850D02*
G01X12500Y1850D01*
G01X12500Y1850D02*
G01X15200Y1850D01*
G01X23300Y13850D02*
G01X23300Y1850D01*
G01X15200Y3250D02*
G01X20600Y3250D01*
G01X20600Y1850D01*
G01X15200Y3250D02*
G01X15200Y1850D01*
G01X20600Y1850D02*
G01X23300Y1850D01*
G01X12900Y11250D02*
G01X12900Y11450D01*
G01X22900Y11450D01*
G01X22900Y5250D01*
G01X12900Y5250D01*
G01X12900Y11250D01*
G01X11400Y12400D02*
G01X8600Y12400D01*
G01X8600Y12400D02*
G01X8600Y13400D01*
G01X8600Y13400D02*
G01X11400Y13400D01*
G01X11400Y13400D02*
G01X11400Y12400D01*
G01X4431Y10350D02*
G01X6793Y10350D01*
G01X6793Y7987D01*
G01X4431Y7987D01*
G01X4431Y10350D01*
G01X6931Y7450D02*
G01X9293Y7450D01*
G01X9293Y5087D01*
G01X6931Y5087D01*
G01X6931Y7450D01*
G01X4431Y4650D02*
G01X6793Y4650D01*
G01X6793Y2287D01*
G01X4431Y2287D01*
G01X4431Y4650D01*
G01X1981Y7450D02*
G01X4343Y7450D01*
G01X4343Y5087D01*
G01X1981Y5087D01*
G01X1981Y7450D01*
G01X25531Y5450D02*
G01X27893Y5450D01*
G01X27893Y3087D01*
G01X25531Y3087D01*
G01X25531Y5450D01*
G01X28581Y7800D02*
G01X30943Y7800D01*
G01X30943Y5437D01*
G01X28581Y5437D01*
G01X28581Y7800D01*
G54D12*
G01X22999Y1649D02*
G01X22999Y695D01*
G01X22999Y1649D02*
G01X23318Y1649D01*
G01X23454Y1604D01*
G01X23545Y1513D01*
G01X23590Y1422D01*
G01X23636Y1286D01*
G01X23636Y1059D01*
G01X23590Y922D01*
G01X23545Y831D01*
G01X23454Y740D01*
G01X23318Y695D01*
G01X22999Y695D01*
G01X23936Y1649D02*
G01X23936Y695D01*
G01X24236Y1649D02*
G01X24599Y1195D01*
G01X24599Y695D01*
G01X24963Y1649D02*
G01X24599Y1195D01*
G01X26327Y1649D02*
G01X25963Y695D01*
G01X26327Y1649D02*
G01X26690Y695D01*
G01X26099Y1013D02*
G01X26554Y1013D01*
G01X26990Y1331D02*
G01X26990Y695D01*
G01X26990Y1059D02*
G01X27036Y1195D01*
G01X27127Y1286D01*
G01X27218Y1331D01*
G01X27354Y1331D01*
G01X28199Y1649D02*
G01X28199Y695D01*
G01X28199Y1195D02*
G01X28109Y1286D01*
G01X28018Y1331D01*
G01X27881Y1331D01*
G01X27790Y1286D01*
G01X27699Y1195D01*
G01X27654Y1059D01*
G01X27654Y968D01*
G01X27699Y831D01*
G01X27790Y740D01*
G01X27881Y695D01*
G01X28018Y695D01*
G01X28109Y740D01*
G01X28199Y831D01*
G01X28499Y1331D02*
G01X28499Y877D01*
G01X28545Y740D01*
G01X28636Y695D01*
G01X28772Y695D01*
G01X28863Y740D01*
G01X28999Y877D01*
G01X28999Y1331D02*
G01X28999Y695D01*
G01X29299Y1649D02*
G01X29299Y695D01*
G01X29299Y1195D02*
G01X29390Y1286D01*
G01X29481Y1331D01*
G01X29618Y1331D01*
G01X29709Y1286D01*
G01X29799Y1195D01*
G01X29845Y1059D01*
G01X29845Y968D01*
G01X29799Y831D01*
G01X29709Y740D01*
G01X29618Y695D01*
G01X29481Y695D01*
G01X29390Y740D01*
G01X29299Y831D01*
G01X30372Y1331D02*
G01X30281Y1286D01*
G01X30190Y1195D01*
G01X30145Y1059D01*
G01X30145Y968D01*
G01X30190Y831D01*
G01X30281Y740D01*
G01X30372Y695D01*
G01X30509Y695D01*
G01X30599Y740D01*
G01X30690Y831D01*
G01X30736Y968D01*
G01X30736Y1059D01*
G01X30690Y1195D01*
G01X30599Y1286D01*
G01X30509Y1331D01*
G01X30372Y1331D01*
G01X31081Y1331D02*
G01X31354Y695D01*
G01X31627Y1331D02*
G01X31354Y695D01*
G01X31263Y513D01*
G01X31172Y422D01*
G01X31081Y377D01*
G01X31036Y377D01*
G54D13*
G01X6667Y11400D02*
G01X6286Y11400D01*
G01X6667Y11400D02*
G01X6667Y11236D01*
G01X6650Y11182D01*
G01X6632Y11163D01*
G01X6594Y11144D01*
G01X6559Y11144D01*
G01X6523Y11163D01*
G01X6505Y11182D01*
G01X6486Y11236D01*
G01X6486Y11400D02*
G01X6486Y11236D01*
G01X6467Y11182D01*
G01X6450Y11163D01*
G01X6413Y11144D01*
G01X6359Y11144D01*
G01X6323Y11163D01*
G01X6305Y11182D01*
G01X6286Y11236D01*
G01X6286Y11400D01*
G01X6450Y11025D02*
G01X6450Y10698D01*
G01X4267Y11400D02*
G01X3886Y11400D01*
G01X4267Y11400D02*
G01X4267Y11236D01*
G01X4250Y11182D01*
G01X4232Y11163D01*
G01X4194Y11144D01*
G01X4159Y11144D01*
G01X4123Y11163D01*
G01X4105Y11182D01*
G01X4086Y11236D01*
G01X4086Y11400D02*
G01X4086Y11236D01*
G01X4067Y11182D01*
G01X4050Y11163D01*
G01X4013Y11144D01*
G01X3959Y11144D01*
G01X3923Y11163D01*
G01X3905Y11182D01*
G01X3886Y11236D01*
G01X3886Y11400D01*
G01X4213Y10861D02*
G01X3886Y10861D01*
G01X4050Y11025D02*
G01X4050Y10698D01*
G01X9317Y9290D02*
G01X9300Y9326D01*
G01X9263Y9363D01*
G01X9226Y9382D01*
G01X9173Y9400D01*
G01X9082Y9400D01*
G01X9026Y9382D01*
G01X8990Y9363D01*
G01X8955Y9326D01*
G01X8936Y9290D01*
G01X8936Y9217D01*
G01X8955Y9182D01*
G01X8990Y9144D01*
G01X9026Y9126D01*
G01X9082Y9109D01*
G01X9173Y9109D01*
G01X9226Y9126D01*
G01X9263Y9144D01*
G01X9300Y9182D01*
G01X9317Y9217D01*
G01X9317Y9290D01*
G01X9317Y8988D02*
G01X9044Y8988D01*
G01X8990Y8971D01*
G01X8955Y8934D01*
G01X8936Y8880D01*
G01X8936Y8844D01*
G01X8955Y8788D01*
G01X8990Y8753D01*
G01X9044Y8734D01*
G01X9317Y8734D01*
G01X9317Y8486D02*
G01X8936Y8486D01*
G01X9317Y8615D02*
G01X9317Y8359D01*
G01X9100Y8240D02*
G01X9100Y7913D01*
G01X7517Y10000D02*
G01X7136Y10000D01*
G01X7517Y10000D02*
G01X7517Y9836D01*
G01X7500Y9782D01*
G01X7482Y9763D01*
G01X7444Y9744D01*
G01X7409Y9744D01*
G01X7373Y9763D01*
G01X7355Y9782D01*
G01X7336Y9836D01*
G01X7336Y10000D02*
G01X7336Y9836D01*
G01X7317Y9782D01*
G01X7300Y9763D01*
G01X7263Y9744D01*
G01X7209Y9744D01*
G01X7173Y9763D01*
G01X7155Y9782D01*
G01X7136Y9836D01*
G01X7136Y10000D01*
G01X7300Y9625D02*
G01X7300Y9298D01*
G01X5117Y10000D02*
G01X4736Y10000D01*
G01X5117Y10000D02*
G01X5117Y9836D01*
G01X5100Y9782D01*
G01X5082Y9763D01*
G01X5044Y9744D01*
G01X5009Y9744D01*
G01X4973Y9763D01*
G01X4955Y9782D01*
G01X4936Y9836D01*
G01X4936Y10000D02*
G01X4936Y9836D01*
G01X4917Y9782D01*
G01X4900Y9763D01*
G01X4863Y9744D01*
G01X4809Y9744D01*
G01X4773Y9763D01*
G01X4755Y9782D01*
G01X4736Y9836D01*
G01X4736Y10000D01*
G01X5063Y9461D02*
G01X4736Y9461D01*
G01X4900Y9625D02*
G01X4900Y9298D01*
G01X3417Y9290D02*
G01X3400Y9326D01*
G01X3363Y9363D01*
G01X3326Y9382D01*
G01X3273Y9400D01*
G01X3182Y9400D01*
G01X3126Y9382D01*
G01X3090Y9363D01*
G01X3055Y9326D01*
G01X3036Y9290D01*
G01X3036Y9217D01*
G01X3055Y9182D01*
G01X3090Y9144D01*
G01X3126Y9126D01*
G01X3182Y9109D01*
G01X3273Y9109D01*
G01X3326Y9126D01*
G01X3363Y9144D01*
G01X3400Y9182D01*
G01X3417Y9217D01*
G01X3417Y9290D01*
G01X3417Y8988D02*
G01X3144Y8988D01*
G01X3090Y8971D01*
G01X3055Y8934D01*
G01X3036Y8880D01*
G01X3036Y8844D01*
G01X3055Y8788D01*
G01X3090Y8753D01*
G01X3144Y8734D01*
G01X3417Y8734D01*
G01X3417Y8486D02*
G01X3036Y8486D01*
G01X3417Y8615D02*
G01X3417Y8359D01*
G01X3363Y8076D02*
G01X3036Y8076D01*
G01X3200Y8240D02*
G01X3200Y7913D01*
G01X9100Y1000D02*
G01X9100Y673D01*
G01X3363Y736D02*
G01X3036Y736D01*
G01X3200Y900D02*
G01X3200Y573D01*
G54D14*
G01X17050Y11200D02*
G01X17050Y10771D01*
G01X17050Y11200D02*
G01X17192Y11200D01*
G01X17255Y11180D01*
G01X17294Y11138D01*
G01X17315Y11098D01*
G01X17336Y11036D01*
G01X17336Y10934D01*
G01X17315Y10873D01*
G01X17294Y10832D01*
G01X17255Y10790D01*
G01X17192Y10771D01*
G01X17050Y10771D01*
G01X17471Y11200D02*
G01X17471Y10771D01*
G01X17892Y11138D02*
G01X17852Y11180D01*
G01X17790Y11200D01*
G01X17709Y11200D01*
G01X17646Y11180D01*
G01X17605Y11138D01*
G01X17605Y11098D01*
G01X17627Y11057D01*
G01X17646Y11036D01*
G01X17688Y11015D01*
G01X17811Y10975D01*
G01X17852Y10955D01*
G01X17871Y10934D01*
G01X17892Y10894D01*
G01X17892Y10832D01*
G01X17852Y10790D01*
G01X17790Y10771D01*
G01X17709Y10771D01*
G01X17646Y10790D01*
G01X17605Y10832D01*
G01X18028Y11200D02*
G01X18028Y10771D01*
G01X18028Y11200D02*
G01X18211Y11200D01*
G01X18273Y11180D01*
G01X18294Y11159D01*
G01X18313Y11119D01*
G01X18313Y11057D01*
G01X18294Y11015D01*
G01X18273Y10996D01*
G01X18211Y10975D01*
G01X18028Y10975D01*
G01X18448Y11119D02*
G01X18490Y11138D01*
G01X18551Y11200D01*
G01X18551Y10771D01*
G01X14757Y11957D02*
G01X14715Y11936D01*
G01X14675Y11894D01*
G01X14655Y11855D01*
G01X14655Y11773D01*
G01X14675Y11732D01*
G01X14715Y11690D01*
G01X14757Y11669D01*
G01X14817Y11650D01*
G01X14919Y11650D01*
G01X14982Y11669D01*
G01X15023Y11690D01*
G01X15063Y11732D01*
G01X15084Y11773D01*
G01X15084Y11855D01*
G01X15063Y11894D01*
G01X15023Y11936D01*
G01X14982Y11957D01*
G01X14919Y11957D01*
G01X14919Y11855D02*
G01X14919Y11957D01*
G01X14655Y12092D02*
G01X15084Y12092D01*
G01X14655Y12092D02*
G01X15084Y12378D01*
G01X14655Y12378D02*
G01X15084Y12378D01*
G01X14655Y12513D02*
G01X15084Y12513D01*
G01X14655Y12513D02*
G01X14655Y12655D01*
G01X14675Y12717D01*
G01X14715Y12759D01*
G01X14757Y12778D01*
G01X14817Y12800D01*
G01X14919Y12800D01*
G01X14982Y12778D01*
G01X15023Y12759D01*
G01X15063Y12717D01*
G01X15084Y12655D01*
G01X15084Y12513D01*
G01X15655Y11650D02*
G01X16084Y11813D01*
G01X15655Y11976D02*
G01X16084Y11813D01*
G01X15757Y12419D02*
G01X15715Y12398D01*
G01X15675Y12357D01*
G01X15655Y12317D01*
G01X15655Y12234D01*
G01X15675Y12194D01*
G01X15715Y12153D01*
G01X15757Y12132D01*
G01X15817Y12111D01*
G01X15919Y12111D01*
G01X15982Y12132D01*
G01X16023Y12153D01*
G01X16063Y12194D01*
G01X16084Y12234D01*
G01X16084Y12317D01*
G01X16063Y12357D01*
G01X16023Y12398D01*
G01X15982Y12419D01*
G01X15757Y12861D02*
G01X15715Y12840D01*
G01X15675Y12800D01*
G01X15655Y12759D01*
G01X15655Y12676D01*
G01X15675Y12636D01*
G01X15715Y12594D01*
G01X15757Y12575D01*
G01X15817Y12553D01*
G01X15919Y12553D01*
G01X15982Y12575D01*
G01X16023Y12594D01*
G01X16063Y12636D01*
G01X16084Y12676D01*
G01X16084Y12759D01*
G01X16063Y12800D01*
G01X16023Y12840D01*
G01X15982Y12861D01*
G01X16715Y11936D02*
G01X16675Y11894D01*
G01X16655Y11834D01*
G01X16655Y11751D01*
G01X16675Y11690D01*
G01X16715Y11650D01*
G01X16757Y11650D01*
G01X16798Y11669D01*
G01X16817Y11690D01*
G01X16838Y11732D01*
G01X16880Y11855D01*
G01X16900Y11894D01*
G01X16919Y11915D01*
G01X16961Y11936D01*
G01X17023Y11936D01*
G01X17063Y11894D01*
G01X17084Y11834D01*
G01X17084Y11751D01*
G01X17063Y11690D01*
G01X17023Y11650D01*
G01X16757Y12378D02*
G01X16715Y12357D01*
G01X16675Y12317D01*
G01X16655Y12276D01*
G01X16655Y12194D01*
G01X16675Y12153D01*
G01X16715Y12111D01*
G01X16757Y12092D01*
G01X16817Y12071D01*
G01X16919Y12071D01*
G01X16982Y12092D01*
G01X17023Y12111D01*
G01X17063Y12153D01*
G01X17084Y12194D01*
G01X17084Y12276D01*
G01X17063Y12317D01*
G01X17023Y12357D01*
G01X16982Y12378D01*
G01X16655Y12513D02*
G01X17084Y12513D01*
G01X17084Y12513D02*
G01X17084Y12759D01*
G01X17715Y11936D02*
G01X17675Y11894D01*
G01X17655Y11834D01*
G01X17655Y11751D01*
G01X17675Y11690D01*
G01X17715Y11650D01*
G01X17757Y11650D01*
G01X17798Y11669D01*
G01X17817Y11690D01*
G01X17838Y11732D01*
G01X17880Y11855D01*
G01X17900Y11894D01*
G01X17919Y11915D01*
G01X17961Y11936D01*
G01X18023Y11936D01*
G01X18063Y11894D01*
G01X18084Y11834D01*
G01X18084Y11751D01*
G01X18063Y11690D01*
G01X18023Y11650D01*
G01X17655Y12071D02*
G01X18084Y12071D01*
G01X17655Y12071D02*
G01X17655Y12215D01*
G01X17675Y12276D01*
G01X17715Y12317D01*
G01X17757Y12336D01*
G01X17817Y12357D01*
G01X17919Y12357D01*
G01X17982Y12336D01*
G01X18023Y12317D01*
G01X18063Y12276D01*
G01X18084Y12215D01*
G01X18084Y12071D01*
G01X17655Y12655D02*
G01X18084Y12492D01*
G01X17655Y12655D02*
G01X18084Y12819D01*
G01X17940Y12553D02*
G01X17940Y12759D01*
G01X18655Y11650D02*
G01X19084Y11650D01*
G01X18655Y11650D02*
G01X18655Y11834D01*
G01X18675Y11894D01*
G01X18694Y11915D01*
G01X18736Y11936D01*
G01X18777Y11936D01*
G01X18817Y11915D01*
G01X18838Y11894D01*
G01X18859Y11834D01*
G01X18859Y11650D01*
G01X18859Y11792D02*
G01X19084Y11936D01*
G01X18655Y12071D02*
G01X19084Y12071D01*
G01X18655Y12071D02*
G01X18655Y12336D01*
G01X18859Y12071D02*
G01X18859Y12234D01*
G01X19084Y12071D02*
G01X19084Y12336D01*
G01X18715Y12759D02*
G01X18675Y12717D01*
G01X18655Y12655D01*
G01X18655Y12575D01*
G01X18675Y12513D01*
G01X18715Y12471D01*
G01X18757Y12471D01*
G01X18798Y12492D01*
G01X18817Y12513D01*
G01X18838Y12553D01*
G01X18880Y12676D01*
G01X18900Y12717D01*
G01X18919Y12738D01*
G01X18961Y12759D01*
G01X19023Y12759D01*
G01X19063Y12717D01*
G01X19084Y12655D01*
G01X19084Y12575D01*
G01X19063Y12513D01*
G01X19023Y12471D01*
G01X19655Y11650D02*
G01X20084Y11650D01*
G01X19655Y11650D02*
G01X19655Y11792D01*
G01X19675Y11855D01*
G01X19715Y11894D01*
G01X19757Y11915D01*
G01X19817Y11936D01*
G01X19919Y11936D01*
G01X19982Y11915D01*
G01X20023Y11894D01*
G01X20063Y11855D01*
G01X20084Y11792D01*
G01X20084Y11650D01*
G01X19757Y12378D02*
G01X19715Y12357D01*
G01X19675Y12317D01*
G01X19655Y12276D01*
G01X19655Y12194D01*
G01X19675Y12153D01*
G01X19715Y12111D01*
G01X19757Y12092D01*
G01X19817Y12071D01*
G01X19919Y12071D01*
G01X19982Y12092D01*
G01X20023Y12111D01*
G01X20063Y12153D01*
G01X20084Y12194D01*
G01X20084Y12276D01*
G01X20063Y12317D01*
G01X20023Y12357D01*
G01X19982Y12378D01*
G01X20757Y11957D02*
G01X20715Y11936D01*
G01X20675Y11894D01*
G01X20655Y11855D01*
G01X20655Y11773D01*
G01X20675Y11732D01*
G01X20715Y11690D01*
G01X20757Y11669D01*
G01X20817Y11650D01*
G01X20919Y11650D01*
G01X20982Y11669D01*
G01X21023Y11690D01*
G01X21063Y11732D01*
G01X21084Y11773D01*
G01X21084Y11855D01*
G01X21063Y11894D01*
G01X21023Y11936D01*
G01X20982Y11957D01*
G01X20715Y12378D02*
G01X20675Y12336D01*
G01X20655Y12276D01*
G01X20655Y12194D01*
G01X20675Y12132D01*
G01X20715Y12092D01*
G01X20757Y12092D01*
G01X20798Y12111D01*
G01X20817Y12132D01*
G01X20838Y12173D01*
G01X20880Y12296D01*
G01X20900Y12336D01*
G01X20919Y12357D01*
G01X20961Y12378D01*
G01X21023Y12378D01*
G01X21063Y12336D01*
G01X21084Y12276D01*
G01X21084Y12194D01*
G01X21063Y12132D01*
G01X21023Y12092D01*
G01X9800Y12150D02*
G01X9800Y11844D01*
G01X9819Y11782D01*
G01X9861Y11740D01*
G01X9923Y11721D01*
G01X9963Y11721D01*
G01X10025Y11740D01*
G01X10065Y11782D01*
G01X10086Y11844D01*
G01X10086Y12150D01*
G01X10221Y12069D02*
G01X10261Y12088D01*
G01X10323Y12150D01*
G01X10323Y11721D01*
G01X5450Y11500D02*
G01X5450Y11194D01*
G01X5469Y11132D01*
G01X5511Y11090D01*
G01X5573Y11071D01*
G01X5613Y11071D01*
G01X5675Y11090D01*
G01X5715Y11132D01*
G01X5736Y11194D01*
G01X5736Y11500D01*
G01X5871Y11500D02*
G01X5871Y11071D01*
G01X5871Y11500D02*
G01X6055Y11500D01*
G01X6117Y11480D01*
G01X6136Y11459D01*
G01X6157Y11419D01*
G01X6157Y11357D01*
G01X6136Y11315D01*
G01X6117Y11296D01*
G01X6055Y11275D01*
G01X5871Y11275D01*
G01X7250Y8650D02*
G01X7250Y8221D01*
G01X7250Y8650D02*
G01X7434Y8650D01*
G01X7494Y8630D01*
G01X7515Y8609D01*
G01X7536Y8569D01*
G01X7536Y8528D01*
G01X7515Y8486D01*
G01X7494Y8465D01*
G01X7434Y8446D01*
G01X7250Y8446D01*
G01X7392Y8446D02*
G01X7536Y8221D01*
G01X7671Y8650D02*
G01X7671Y8221D01*
G01X8113Y8548D02*
G01X8092Y8588D01*
G01X8051Y8630D01*
G01X8011Y8650D01*
G01X7928Y8650D01*
G01X7888Y8630D01*
G01X7846Y8588D01*
G01X7826Y8548D01*
G01X7805Y8486D01*
G01X7805Y8384D01*
G01X7826Y8323D01*
G01X7846Y8282D01*
G01X7888Y8240D01*
G01X7928Y8221D01*
G01X8011Y8221D01*
G01X8051Y8240D01*
G01X8092Y8282D01*
G01X8113Y8323D01*
G01X8113Y8384D01*
G01X8011Y8384D02*
G01X8113Y8384D01*
G01X8248Y8650D02*
G01X8248Y8221D01*
G01X8534Y8650D02*
G01X8534Y8221D01*
G01X8248Y8446D02*
G01X8534Y8446D01*
G01X8813Y8650D02*
G01X8813Y8221D01*
G01X8669Y8650D02*
G01X8955Y8650D01*
G01X4750Y5950D02*
G01X4750Y5521D01*
G01X4750Y5950D02*
G01X4892Y5950D01*
G01X4955Y5930D01*
G01X4994Y5888D01*
G01X5015Y5848D01*
G01X5036Y5786D01*
G01X5036Y5684D01*
G01X5015Y5623D01*
G01X4994Y5582D01*
G01X4955Y5540D01*
G01X4892Y5521D01*
G01X4750Y5521D01*
G01X5294Y5950D02*
G01X5253Y5930D01*
G01X5211Y5888D01*
G01X5192Y5848D01*
G01X5171Y5786D01*
G01X5171Y5684D01*
G01X5192Y5623D01*
G01X5211Y5582D01*
G01X5253Y5540D01*
G01X5294Y5521D01*
G01X5376Y5521D01*
G01X5417Y5540D01*
G01X5457Y5582D01*
G01X5478Y5623D01*
G01X5498Y5684D01*
G01X5498Y5786D01*
G01X5478Y5848D01*
G01X5457Y5888D01*
G01X5417Y5930D01*
G01X5376Y5950D01*
G01X5294Y5950D01*
G01X5634Y5950D02*
G01X5736Y5521D01*
G01X5838Y5950D02*
G01X5736Y5521D01*
G01X5838Y5950D02*
G01X5940Y5521D01*
G01X6042Y5950D02*
G01X5940Y5521D01*
G01X6178Y5950D02*
G01X6178Y5521D01*
G01X6178Y5950D02*
G01X6463Y5521D01*
G01X6463Y5950D02*
G01X6463Y5521D01*
G01X2550Y8800D02*
G01X2550Y8371D01*
G01X2550Y8371D02*
G01X2794Y8371D01*
G01X2930Y8800D02*
G01X2930Y8371D01*
G01X2930Y8800D02*
G01X3196Y8800D01*
G01X2930Y8596D02*
G01X3094Y8596D01*
G01X2930Y8371D02*
G01X3196Y8371D01*
G01X3330Y8800D02*
G01X3330Y8371D01*
G01X3330Y8800D02*
G01X3596Y8800D01*
G01X3330Y8596D02*
G01X3494Y8596D01*
G01X3875Y8800D02*
G01X3875Y8371D01*
G01X3732Y8800D02*
G01X4019Y8800D01*
G01X26713Y6650D02*
G01X26550Y6221D01*
G01X26713Y6650D02*
G01X26877Y6221D01*
G01X26611Y6363D02*
G01X26815Y6363D01*
G01X29700Y8900D02*
G01X29700Y8471D01*
G01X29700Y8900D02*
G01X29884Y8900D01*
G01X29944Y8880D01*
G01X29965Y8859D01*
G01X29985Y8819D01*
G01X29985Y8778D01*
G01X29965Y8736D01*
G01X29944Y8715D01*
G01X29884Y8696D01*
G01X29700Y8696D02*
G01X29884Y8696D01*
G01X29944Y8675D01*
G01X29965Y8655D01*
G01X29985Y8613D01*
G01X29985Y8553D01*
G01X29965Y8511D01*
G01X29944Y8490D01*
G01X29884Y8471D01*
G01X29700Y8471D01*
G01X26886Y13189D02*
G01X26844Y13230D01*
G01X26784Y13250D01*
G01X26702Y13250D01*
G01X26640Y13230D01*
G01X26600Y13189D01*
G01X26600Y13148D01*
G01X26619Y13107D01*
G01X26640Y13087D01*
G01X26682Y13066D01*
G01X26805Y13025D01*
G01X26844Y13005D01*
G01X26865Y12985D01*
G01X26886Y12944D01*
G01X26886Y12882D01*
G01X26844Y12841D01*
G01X26784Y12821D01*
G01X26702Y12821D01*
G01X26640Y12841D01*
G01X26600Y12882D01*
G01X27328Y13148D02*
G01X27307Y13189D01*
G01X27267Y13230D01*
G01X27226Y13250D01*
G01X27144Y13250D01*
G01X27103Y13230D01*
G01X27061Y13189D01*
G01X27042Y13148D01*
G01X27021Y13087D01*
G01X27021Y12985D01*
G01X27042Y12923D01*
G01X27061Y12882D01*
G01X27103Y12841D01*
G01X27144Y12821D01*
G01X27226Y12821D01*
G01X27267Y12841D01*
G01X27307Y12882D01*
G01X27328Y12923D01*
G01X27328Y12985D01*
G01X27226Y12985D02*
G01X27328Y12985D01*
G01X27463Y13169D02*
G01X27503Y13189D01*
G01X27564Y13250D01*
G01X27564Y12821D01*
G54D15*
G01X15194Y10265D02*
G01X15194Y10484D01*
G01X15207Y10525D01*
G01X15221Y10538D01*
G01X15248Y10553D01*
G01X15275Y10553D01*
G01X15303Y10538D01*
G01X15315Y10525D01*
G01X15330Y10484D01*
G01X15330Y10457D01*
G01X15103Y10265D02*
G01X15103Y10553D01*
G01X15103Y10265D02*
G01X14980Y10265D01*
G01X14940Y10280D01*
G01X14926Y10294D01*
G01X14913Y10321D01*
G01X14913Y10361D01*
G01X14926Y10388D01*
G01X14940Y10403D01*
G01X14980Y10415D01*
G01X15103Y10415D01*
G01X14632Y10265D02*
G01X14767Y10553D01*
G01X14823Y10265D02*
G01X14632Y10265D01*
G54D11*
G75*
G01X6186Y9153D02*
G03X6186Y9144I-535J-5D01*
G01*
G75*
G01X6394Y9169D02*
G03X6394Y9155I-742J-7D01*
G01*
G75*
G01X8686Y6253D02*
G03X8686Y6244I-535J-5D01*
G01*
G75*
G01X8894Y6269D02*
G03X8894Y6255I-742J-7D01*
G01*
G75*
G01X6186Y3453D02*
G03X6186Y3444I-535J-5D01*
G01*
G75*
G01X6394Y3469D02*
G03X6394Y3455I-742J-7D01*
G01*
G75*
G01X3736Y6253D02*
G03X3736Y6244I-535J-5D01*
G01*
G75*
G01X3944Y6269D02*
G03X3944Y6255I-742J-7D01*
G01*
G75*
G01X27286Y4253D02*
G03X27286Y4244I-535J-5D01*
G01*
G75*
G01X27494Y4269D02*
G03X27494Y4255I-742J-7D01*
G01*
G75*
G01X30336Y6603D02*
G03X30336Y6594I-535J-5D01*
G01*
G75*
G01X30544Y6619D02*
G03X30544Y6605I-742J-7D01*
G01*
G54D10*
G75*
G01X14150Y12950D02*
G03X14150Y12950I-750J0D01*
G01*
G75*
G01X23150Y12950D02*
G03X23150Y12950I-750J0D01*
G01*
G75*
G01X23150Y2750D02*
G03X23150Y2750I-750J0D01*
G01*
G75*
G01X14150Y2750D02*
G03X14150Y2750I-750J0D01*
G01*

M00*
M02*