;PTH Drill file created by EasyEDA 
M48
;Holesize 1 = 0.036 INCH
T01C0.036
;Holesize 2 = 0.039 INCH
T02C0.039
;Holesize 3 = 0.035 INCH
T03C0.035
;Holesize 4 = 0.032 INCH
T04C0.032
;Holesize 5 = 0.012 INCH
T05C0.012
INCH,00.0000
%
G05
G90
T01
X014900Y013250
X015900Y013250
X016900Y013250
X017900Y013250
X018900Y013250
X019900Y013250
X020900Y013250
X014800Y011650
X014800Y010650
X014800Y009650
X014800Y008650
X014800Y007650
X014800Y006650
X014800Y005650
X014800Y004650
X014800Y003650
X014800Y002650
X014800Y001650
X014800Y000650
X020800Y000650
X020800Y001650
X020800Y002650
X020800Y003650
X020800Y004650
X020800Y005650
X020800Y006650
X020800Y007650
X020800Y008650
X020800Y009650
X020800Y010650
X020800Y011650
X009200Y009900
X003000Y009900
X008200Y009900
X004000Y009900
T02
X011000Y012900
X010000Y012900
X009000Y012900
X006400Y007988
X006400Y010350
X004825Y007988
X004825Y010350
X008900Y005088
X008900Y007450
X007325Y005088
X007325Y007450
X006400Y002288
X006400Y004650
X004825Y002288
X004825Y004650
X003950Y005088
X003950Y007450
X002375Y005088
X002375Y007450
X027500Y003088
X027500Y005450
X025925Y003088
X025925Y005450
X030550Y005438
X030550Y007800
X028975Y005438
X028975Y007800
T03
X025519Y011650
X028080Y011650
T04
X003900Y012750
X005800Y012750
T05
X016813Y007650
X020050Y005650
M30
