G04 ---------------------------- Layer name :BOTTOM SOLDER LAYER*
G04 easyEDA 0.1*
G04 Scale: 100 percent, Rotated: No, Reflected: No *
G04 Dimensions in inches *
G04 leading zeros omitted , absolute positions ,2 integer and 4 * 
%FSLAX24Y24*%
%MOIN*%
G90*
G70D02*

%ADD11C,0.078000*%
%ADD12C,0.058000*%
%ADD13C,0.096582*%
%ADD16R,0.068000X0.068000*%
%ADD17C,0.068000*%
%ADD19R,0.078000X0.078000*%
%ADD20C,0.082000*%

%LPD*%
G54D11*
G01X6400Y8088D02*
G01X6400Y7888D01*
G01X6400Y10450D02*
G01X6400Y10250D01*
G01X4825Y8088D02*
G01X4825Y7888D01*
G01X4825Y10450D02*
G01X4825Y10250D01*
G01X8900Y5188D02*
G01X8900Y4988D01*
G01X8900Y7550D02*
G01X8900Y7350D01*
G01X7325Y5188D02*
G01X7325Y4988D01*
G01X7325Y7550D02*
G01X7325Y7350D01*
G01X6400Y2388D02*
G01X6400Y2188D01*
G01X6400Y4750D02*
G01X6400Y4550D01*
G01X4825Y2388D02*
G01X4825Y2188D01*
G01X4825Y4750D02*
G01X4825Y4550D01*
G01X3950Y5188D02*
G01X3950Y4988D01*
G01X3950Y7550D02*
G01X3950Y7350D01*
G01X2375Y5188D02*
G01X2375Y4988D01*
G01X2375Y7550D02*
G01X2375Y7350D01*
G01X27500Y3188D02*
G01X27500Y2988D01*
G01X27500Y5550D02*
G01X27500Y5350D01*
G01X25925Y3188D02*
G01X25925Y2988D01*
G01X25925Y5550D02*
G01X25925Y5350D01*
G01X30550Y5538D02*
G01X30550Y5338D01*
G01X30550Y7900D02*
G01X30550Y7700D01*
G01X28975Y5538D02*
G01X28975Y5338D01*
G01X28975Y7900D02*
G01X28975Y7700D01*
G54D12*
G01X14950Y11650D02*
G01X14650Y11650D01*
G01X14950Y10650D02*
G01X14650Y10650D01*
G01X14950Y9650D02*
G01X14650Y9650D01*
G01X14950Y8650D02*
G01X14650Y8650D01*
G01X14950Y7650D02*
G01X14650Y7650D01*
G01X14950Y6650D02*
G01X14650Y6650D01*
G01X14950Y5650D02*
G01X14650Y5650D01*
G01X14950Y4650D02*
G01X14650Y4650D01*
G01X14950Y3650D02*
G01X14650Y3650D01*
G01X14950Y2650D02*
G01X14650Y2650D01*
G01X14950Y1650D02*
G01X14650Y1650D01*
G01X14950Y650D02*
G01X14650Y650D01*
G01X20650Y650D02*
G01X20950Y650D01*
G01X20650Y1650D02*
G01X20950Y1650D01*
G01X20650Y2650D02*
G01X20950Y2650D01*
G01X20650Y3650D02*
G01X20950Y3650D01*
G01X20650Y4650D02*
G01X20950Y4650D01*
G01X20650Y5650D02*
G01X20950Y5650D01*
G01X20650Y6650D02*
G01X20950Y6650D01*
G01X20650Y7650D02*
G01X20950Y7650D01*
G01X20650Y8650D02*
G01X20950Y8650D01*
G01X20650Y9650D02*
G01X20950Y9650D01*
G01X20650Y10650D02*
G01X20950Y10650D01*
G01X20650Y11650D02*
G01X20950Y11650D01*
G54D13*
G01X3900Y12602D02*
G01X3900Y12897D01*
G01X5800Y12602D02*
G01X5800Y12897D01*
G54D16*
G01X14900Y13250D03*
G54D17*
G01X15900Y13250D03*
G01X16900Y13250D03*
G01X17900Y13250D03*
G01X18900Y13250D03*
G01X19900Y13250D03*
G01X20900Y13250D03*
G54D19*
G01X11000Y12900D03*
G01X10000Y12900D03*
G01X9000Y12900D03*
G54D20*
G01X25519Y11650D03*
G01X28080Y11650D03*
G54D16*
G01X9200Y9900D03*
G01X3000Y9900D03*
G01X8200Y9900D03*
G01X4000Y9900D03*

M00*
M02*